<mxfile host="app.diagrams.net" modified="2023-06-01T04:50:23.549Z" agent="Mozilla/5.0 (Windows NT 10.0; Win64; x64) AppleWebKit/537.36 (KHTML, like Gecko) Chrome/113.0.0.0 Safari/537.36" etag="fhP8vVQZcN80GjY72IBh" version="21.3.6" type="github">
  <diagram name="Page-1" id="edf60f1a-56cd-e834-aa8a-f176f3a09ee4">
    <mxGraphModel dx="714" dy="527" grid="1" gridSize="10" guides="1" tooltips="1" connect="1" arrows="1" fold="1" page="1" pageScale="1" pageWidth="1100" pageHeight="850" background="none" math="0" shadow="0">
      <root>
        <mxCell id="0" />
        <mxCell id="1" parent="0" />
        <mxCell id="iz55VtCZMDGFUs2c2hqT-8" value="" style="edgeStyle=orthogonalEdgeStyle;rounded=0;orthogonalLoop=1;jettySize=auto;html=1;" edge="1" parent="1" source="iz55VtCZMDGFUs2c2hqT-1" target="iz55VtCZMDGFUs2c2hqT-5">
          <mxGeometry relative="1" as="geometry" />
        </mxCell>
        <mxCell id="iz55VtCZMDGFUs2c2hqT-1" value="N an interger" style="strokeWidth=2;html=1;shape=mxgraph.flowchart.start_1;whiteSpace=wrap;" vertex="1" parent="1">
          <mxGeometry x="320" y="30" width="200" height="110" as="geometry" />
        </mxCell>
        <mxCell id="iz55VtCZMDGFUs2c2hqT-9" value="" style="edgeStyle=orthogonalEdgeStyle;rounded=0;orthogonalLoop=1;jettySize=auto;html=1;" edge="1" parent="1" source="iz55VtCZMDGFUs2c2hqT-5" target="iz55VtCZMDGFUs2c2hqT-6">
          <mxGeometry relative="1" as="geometry" />
        </mxCell>
        <mxCell id="iz55VtCZMDGFUs2c2hqT-10" value="" style="edgeStyle=orthogonalEdgeStyle;rounded=0;orthogonalLoop=1;jettySize=auto;html=1;" edge="1" parent="1" source="iz55VtCZMDGFUs2c2hqT-5" target="iz55VtCZMDGFUs2c2hqT-7">
          <mxGeometry relative="1" as="geometry" />
        </mxCell>
        <mxCell id="iz55VtCZMDGFUs2c2hqT-20" style="edgeStyle=orthogonalEdgeStyle;rounded=0;orthogonalLoop=1;jettySize=auto;html=1;exitX=1;exitY=0.5;exitDx=0;exitDy=0;exitPerimeter=0;entryX=1;entryY=0.5;entryDx=0;entryDy=0;entryPerimeter=0;" edge="1" parent="1" source="iz55VtCZMDGFUs2c2hqT-5" target="iz55VtCZMDGFUs2c2hqT-7">
          <mxGeometry relative="1" as="geometry" />
        </mxCell>
        <mxCell id="iz55VtCZMDGFUs2c2hqT-5" value="is N is &lt;br&gt;odd&lt;br&gt;or&lt;br&gt;even" style="strokeWidth=2;html=1;shape=mxgraph.flowchart.decision;whiteSpace=wrap;" vertex="1" parent="1">
          <mxGeometry x="360" y="180" width="120" height="120" as="geometry" />
        </mxCell>
        <mxCell id="iz55VtCZMDGFUs2c2hqT-6" value="Weird" style="strokeWidth=2;html=1;shape=mxgraph.flowchart.terminator;whiteSpace=wrap;" vertex="1" parent="1">
          <mxGeometry x="170" y="210" width="100" height="60" as="geometry" />
        </mxCell>
        <mxCell id="iz55VtCZMDGFUs2c2hqT-12" value="" style="edgeStyle=orthogonalEdgeStyle;rounded=0;orthogonalLoop=1;jettySize=auto;html=1;" edge="1" parent="1" source="iz55VtCZMDGFUs2c2hqT-7" target="iz55VtCZMDGFUs2c2hqT-11">
          <mxGeometry relative="1" as="geometry" />
        </mxCell>
        <mxCell id="iz55VtCZMDGFUs2c2hqT-14" value="" style="edgeStyle=orthogonalEdgeStyle;rounded=0;orthogonalLoop=1;jettySize=auto;html=1;" edge="1" parent="1" source="iz55VtCZMDGFUs2c2hqT-7" target="iz55VtCZMDGFUs2c2hqT-13">
          <mxGeometry relative="1" as="geometry" />
        </mxCell>
        <mxCell id="iz55VtCZMDGFUs2c2hqT-7" value="range of 2 to 5?" style="strokeWidth=2;html=1;shape=mxgraph.flowchart.decision;whiteSpace=wrap;" vertex="1" parent="1">
          <mxGeometry x="370" y="360" width="100" height="100" as="geometry" />
        </mxCell>
        <mxCell id="iz55VtCZMDGFUs2c2hqT-11" value="Not Weird" style="strokeWidth=2;html=1;shape=mxgraph.flowchart.terminator;whiteSpace=wrap;" vertex="1" parent="1">
          <mxGeometry x="170" y="380" width="100" height="60" as="geometry" />
        </mxCell>
        <mxCell id="iz55VtCZMDGFUs2c2hqT-16" value="" style="edgeStyle=orthogonalEdgeStyle;rounded=0;orthogonalLoop=1;jettySize=auto;html=1;" edge="1" parent="1" source="iz55VtCZMDGFUs2c2hqT-13" target="iz55VtCZMDGFUs2c2hqT-15">
          <mxGeometry relative="1" as="geometry" />
        </mxCell>
        <mxCell id="iz55VtCZMDGFUs2c2hqT-25" value="" style="edgeStyle=orthogonalEdgeStyle;rounded=0;orthogonalLoop=1;jettySize=auto;html=1;" edge="1" parent="1" source="iz55VtCZMDGFUs2c2hqT-13">
          <mxGeometry relative="1" as="geometry">
            <mxPoint x="420" y="690" as="targetPoint" />
          </mxGeometry>
        </mxCell>
        <mxCell id="iz55VtCZMDGFUs2c2hqT-13" value="range of 6 to 20?" style="strokeWidth=2;html=1;shape=mxgraph.flowchart.decision;whiteSpace=wrap;" vertex="1" parent="1">
          <mxGeometry x="370" y="520" width="100" height="100" as="geometry" />
        </mxCell>
        <mxCell id="iz55VtCZMDGFUs2c2hqT-15" value="Weird" style="strokeWidth=2;html=1;shape=mxgraph.flowchart.terminator;whiteSpace=wrap;" vertex="1" parent="1">
          <mxGeometry x="170" y="540" width="100" height="60" as="geometry" />
        </mxCell>
        <mxCell id="iz55VtCZMDGFUs2c2hqT-17" value="Y" style="text;strokeColor=none;align=center;fillColor=none;html=1;verticalAlign=middle;whiteSpace=wrap;rounded=0;" vertex="1" parent="1">
          <mxGeometry x="290" y="210" width="60" height="30" as="geometry" />
        </mxCell>
        <mxCell id="iz55VtCZMDGFUs2c2hqT-18" value="N" style="text;strokeColor=none;align=center;fillColor=none;html=1;verticalAlign=middle;whiteSpace=wrap;rounded=0;" vertex="1" parent="1">
          <mxGeometry x="490" y="300" width="60" height="30" as="geometry" />
        </mxCell>
        <mxCell id="iz55VtCZMDGFUs2c2hqT-21" value="Y" style="text;strokeColor=none;align=center;fillColor=none;html=1;verticalAlign=middle;whiteSpace=wrap;rounded=0;" vertex="1" parent="1">
          <mxGeometry x="290" y="380" width="60" height="30" as="geometry" />
        </mxCell>
        <mxCell id="iz55VtCZMDGFUs2c2hqT-22" value="N" style="text;strokeColor=none;align=center;fillColor=none;html=1;verticalAlign=middle;whiteSpace=wrap;rounded=0;" vertex="1" parent="1">
          <mxGeometry x="410" y="470" width="60" height="30" as="geometry" />
        </mxCell>
        <mxCell id="iz55VtCZMDGFUs2c2hqT-23" value="Y" style="text;strokeColor=none;align=center;fillColor=none;html=1;verticalAlign=middle;whiteSpace=wrap;rounded=0;" vertex="1" parent="1">
          <mxGeometry x="290" y="540" width="60" height="30" as="geometry" />
        </mxCell>
        <mxCell id="iz55VtCZMDGFUs2c2hqT-27" value="Not Weird" style="strokeWidth=2;html=1;shape=mxgraph.flowchart.terminator;whiteSpace=wrap;" vertex="1" parent="1">
          <mxGeometry x="370" y="690" width="100" height="60" as="geometry" />
        </mxCell>
        <mxCell id="iz55VtCZMDGFUs2c2hqT-28" value="N" style="text;strokeColor=none;align=center;fillColor=none;html=1;verticalAlign=middle;whiteSpace=wrap;rounded=0;" vertex="1" parent="1">
          <mxGeometry x="410" y="630" width="60" height="30" as="geometry" />
        </mxCell>
      </root>
    </mxGraphModel>
  </diagram>
</mxfile>
